# xmcd
#
# Track frame offsets:
#	150
#	14985
#	35167
#	54587
#	65260
#	80700
#	114125
#	134040
#	150827
#	159617
#	172610
#	197870
#	231172
#
# Disc length: 3166 seconds
#
# Revision: 1
# Processed by: cddbd v1.4PL0 Copyright (c) Steve Scherf et al.
# Submitted via: audiograbber 1.81.03
#
DISCID=ab0c5c0d
DTITLE=Bishop and Massé - Twelve Reasons to Believe
DYEAR=1996
DGENRE=Blues
TTITLE0=Too Far Gone
TTITLE1=Going To Florida
TTITLE2=A Letter From The Manor Motor Inn
TTITLE3=Clark Street Blues
TTITLE4=Keep Your Head Together
TTITLE5=When I Wake In The Morning
TTITLE6=Grand Central Gateway
TTITLE7=Griffintown
TTITLE8=Two Pennies
TTITLE9=Suzie Cleveland
TTITLE10=Little Sister Sunshine
TTITLE11=The Twelfth Reason
TTITLE12=Grand Central Gateway (Reprise)
EXTD=
EXTT0=
EXTT1=
EXTT2=
EXTT3=
EXTT4=
EXTT5=
EXTT6=
EXTT7=
EXTT8=
EXTT9=
EXTT10=
EXTT11=
EXTT12=
PLAYORDER=
